<svg width="320" height="320" viewBox="0 0 320 320" fill="none" xmlns="http://www.w3.org/2000/svg">
<path opacity="0.5" d="M222.15 -124.21L221.494 -122.83L222.934 -122.32C317.294 -88.8419 317.301 44.765 222.932 78.4013L221.493 78.9142L222.151 80.293C265.282 170.76 170.767 265.13 80.2912 222.15L78.9134 221.495L78.4013 222.932C44.7661 317.298 -88.685 317.298 -122.32 222.932L-122.833 221.493L-124.212 222.151C-214.678 265.282 -309.049 170.767 -266.069 80.2912L-265.414 78.9134L-266.851 78.4013C-361.217 44.7661 -361.217 -88.685 -266.851 -122.32L-265.412 -122.833L-266.07 -124.212C-309.201 -214.678 -214.686 -309.049 -124.21 -266.069L-122.832 -265.414L-122.32 -266.851C-88.685 -361.217 44.7661 -361.217 78.4013 -266.851L78.9142 -265.412L80.293 -266.07C170.76 -309.201 265.13 -214.686 222.15 -124.21Z" stroke="#9D51FF" stroke-width="2.75691"/>
<path opacity="0.3" d="M241.455 -131.559L240.8 -130.179L242.24 -129.669C343.942 -93.5861 343.948 50.4161 242.238 86.6694L240.799 87.1823L241.456 88.5611C287.944 186.067 186.075 287.779 88.5594 241.455L87.1815 240.801L86.6694 242.238C50.4171 343.945 -93.4171 343.945 -129.669 242.238L-130.182 240.799L-131.561 241.456C-229.067 287.944 -330.779 186.075 -284.455 88.5594L-283.801 87.1815L-285.238 86.6694C-386.945 50.4171 -386.945 -93.4171 -285.238 -129.669L-283.799 -130.182L-284.456 -131.561C-330.943 -229.067 -229.075 -330.779 -131.559 -284.455L-130.181 -283.801L-129.669 -285.238C-93.4171 -386.945 50.4171 -386.945 86.6694 -285.238L87.1823 -283.799L88.5611 -284.456C186.067 -330.943 287.779 -229.075 241.455 -131.559Z" stroke="#9D51FF" stroke-width="2.75691"/>
<path opacity="0.8" d="M198.681 -114.486L198.026 -113.106L199.465 -112.596C284.682 -82.3618 284.689 38.3 199.463 68.6773L198.025 69.1902L198.682 70.569C237.634 152.27 152.277 237.497 70.5673 198.681L69.1895 198.027L68.6773 199.463C38.301 284.686 -82.22 284.686 -112.596 199.463L-113.109 198.025L-114.488 198.682C-196.189 237.634 -281.416 152.277 -242.6 70.5673L-241.946 69.1895L-243.382 68.6773C-328.605 38.301 -328.605 -82.22 -243.382 -112.596L-241.944 -113.109L-242.601 -114.488C-281.553 -196.189 -196.196 -281.416 -114.486 -242.6L-113.108 -241.946L-112.596 -243.382C-82.22 -328.605 38.301 -328.605 68.6773 -243.382L69.1902 -241.944L70.569 -242.601C152.27 -281.553 237.497 -196.196 198.681 -114.486Z" stroke="#9D51FF" stroke-width="2.75691"/>
<path d="M171.583 -101.501C205.843 -173.621 130.621 -248.967 58.5014 -214.583C31.6895 -289.806 -74.6894 -289.806 -101.501 -214.583C-173.621 -248.843 -248.967 -173.621 -214.583 -101.501C-289.806 -74.6894 -289.806 31.6895 -214.583 58.5014C-248.843 130.621 -173.621 205.967 -101.501 171.583C-74.6894 246.806 31.6895 246.806 58.5014 171.583C130.621 205.843 205.967 130.621 171.583 58.5014C246.806 31.6895 246.806 -74.8136 171.583 -101.501Z" fill="#9D51FF"/>
</svg>
